<svg width="514.301" height="63.301" viewBox="0 0 514.301 63.301" xmlns="http://www.w3.org/2000/svg">
    <g id="svgGroup" stroke-linecap="round" fill-rule="evenodd" font-size="9pt" stroke="#000" stroke-width="0.25mm"
       fill="#000" style="stroke:#000;stroke-width:0.25mm;fill:#000">
        <path d="M 210.501 61.2 L 210.501 2.1 A 3.023 3.023 0 0 1 210.605 1.269 Q 210.872 0.338 211.823 0.09 A 3.094 3.094 0 0 1 212.601 0 A 3.069 3.069 0 0 1 213.747 0.206 Q 214.482 0.499 214.978 1.212 A 3.622 3.622 0 0 1 215.101 1.4 L 240.401 40.3 L 239.401 40.4 L 264.701 1.4 A 2.999 2.999 0 0 1 265.505 0.507 Q 266.109 0.072 266.927 0.01 A 3.663 3.663 0 0 1 267.201 0 Q 268.796 0 269.119 1.336 A 3.261 3.261 0 0 1 269.201 2.1 L 269.201 61.2 A 3.023 3.023 0 0 1 269.096 62.032 Q 268.83 62.963 267.878 63.211 A 3.094 3.094 0 0 1 267.101 63.3 A 3.023 3.023 0 0 1 266.27 63.196 Q 265.338 62.929 265.09 61.978 A 3.094 3.094 0 0 1 265.001 61.2 L 265.001 6.3 L 266.201 6.7 L 242.401 43.3 A 2.999 2.999 0 0 1 241.596 44.194 Q 240.992 44.629 240.174 44.69 A 3.663 3.663 0 0 1 239.901 44.7 A 3.069 3.069 0 0 1 238.755 44.495 Q 238.019 44.202 237.523 43.489 A 3.622 3.622 0 0 1 237.401 43.3 L 213.601 6.7 L 214.701 7.2 L 214.701 61.2 A 3.023 3.023 0 0 1 214.596 62.032 Q 214.33 62.963 213.378 63.211 A 3.094 3.094 0 0 1 212.601 63.3 A 3.023 3.023 0 0 1 211.77 63.196 Q 210.838 62.929 210.59 61.978 A 3.094 3.094 0 0 1 210.501 61.2 Z M 32.301 63.3 L 20.301 63.3 A 37.239 37.239 0 0 1 14.771 62.919 Q 8.294 61.943 4.826 58.475 A 14.438 14.438 0 0 1 1.57 53.254 Q 0.712 50.968 0.323 48.116 A 37.954 37.954 0 0 1 0.001 43 L 0.001 20.3 A 37.788 37.788 0 0 1 0.382 14.731 Q 0.804 11.903 1.696 9.656 A 14.04 14.04 0 0 1 4.826 4.775 Q 9.651 0 20.201 0 L 32.301 0 A 34.993 34.993 0 0 1 37.189 0.318 Q 39.604 0.66 41.554 1.369 A 13.271 13.271 0 0 1 45.801 3.8 Q 49.212 6.78 50.163 12.65 A 29.064 29.064 0 0 1 50.501 16.1 Q 50.6 17.142 50.084 17.716 A 1.555 1.555 0 0 1 50.076 17.725 A 1.659 1.659 0 0 1 49.32 18.19 Q 48.961 18.3 48.501 18.3 A 2.906 2.906 0 0 1 47.632 18.181 Q 46.415 17.8 46.301 16.2 A 23.525 23.525 0 0 0 45.938 12.906 Q 45.216 9.065 43.167 7.128 A 6.843 6.843 0 0 0 42.826 6.825 Q 39.932 4.433 33.571 4.221 A 38.14 38.14 0 0 0 32.301 4.2 L 20.201 4.2 A 36.606 36.606 0 0 0 16.587 4.367 Q 14.816 4.544 13.333 4.906 A 15.098 15.098 0 0 0 10.801 5.75 Q 7.301 7.3 5.751 10.825 Q 4.201 14.35 4.201 20.3 L 4.201 43 A 36.11 36.11 0 0 0 4.37 46.617 Q 4.717 50.057 5.776 52.425 Q 7.351 55.95 10.876 57.525 A 15.637 15.637 0 0 0 13.853 58.485 Q 16.613 59.1 20.301 59.1 L 32.301 59.1 Q 38.596 59.1 41.829 57.174 A 7.932 7.932 0 0 0 42.826 56.475 Q 46.001 53.85 46.301 47.1 Q 46.451 45 48.501 45 A 3.047 3.047 0 0 1 49.106 45.057 Q 49.715 45.18 50.076 45.575 A 1.629 1.629 0 0 1 50.455 46.31 Q 50.548 46.702 50.501 47.2 A 27.039 27.039 0 0 1 49.943 51.796 Q 48.863 56.782 45.801 59.475 A 13.299 13.299 0 0 1 41.474 61.952 Q 39.487 62.668 37.022 63.004 A 35.07 35.07 0 0 1 32.301 63.3 Z M 148.801 63.2 L 132.401 63.2 A 22.294 22.294 0 0 1 128.988 62.957 Q 127.211 62.681 125.785 62.093 A 9.485 9.485 0 0 1 123.251 60.575 A 9.434 9.434 0 0 1 120.649 56.924 Q 119.854 55.013 119.601 52.5 A 3.61 3.61 0 0 1 119.596 52.329 Q 119.596 51.516 119.985 51.01 A 1.645 1.645 0 0 1 120.101 50.875 Q 120.651 50.3 121.701 50.3 A 3.045 3.045 0 0 1 122.292 50.354 Q 122.869 50.469 123.226 50.825 A 1.76 1.76 0 0 1 123.623 51.457 Q 123.723 51.721 123.768 52.045 A 3.898 3.898 0 0 1 123.801 52.4 A 11.818 11.818 0 0 0 124.163 54.329 Q 124.448 55.336 124.908 56.101 A 4.903 4.903 0 0 0 126.176 57.525 A 6.102 6.102 0 0 0 127.867 58.388 Q 129.483 58.939 131.864 58.994 A 23.254 23.254 0 0 0 132.401 59 L 148.801 59 A 20.042 20.042 0 0 0 151.083 58.88 Q 153.497 58.602 154.886 57.683 A 4.474 4.474 0 0 0 155.626 57.075 Q 157.321 55.335 157.483 51.202 A 22.99 22.99 0 0 0 157.501 50.3 A 20.234 20.234 0 0 0 157.383 48.038 Q 157.032 44.925 155.626 43.5 A 5.113 5.113 0 0 0 153.927 42.399 Q 152.35 41.742 149.896 41.626 A 23.144 23.144 0 0 0 148.801 41.6 L 132.601 41.6 A 21.356 21.356 0 0 1 129.192 41.347 Q 125.422 40.736 123.301 38.65 A 8.963 8.963 0 0 1 121.198 35.289 Q 120.672 33.858 120.454 32.082 A 22.072 22.072 0 0 1 120.301 29.4 A 21.721 21.721 0 0 1 120.538 26.073 Q 120.813 24.305 121.405 22.903 A 8.688 8.688 0 0 1 123.301 20.05 A 9.188 9.188 0 0 1 126.697 17.983 Q 128.137 17.466 129.917 17.252 A 22.506 22.506 0 0 1 132.601 17.1 L 148.301 17.1 A 18.405 18.405 0 0 1 152.847 17.614 Q 158.764 19.126 160.094 25.091 A 15.705 15.705 0 0 1 160.401 27.1 A 3.23 3.23 0 0 1 160.428 27.373 Q 160.45 27.755 160.367 28.066 A 1.497 1.497 0 0 1 160.001 28.725 Q 159.451 29.3 158.401 29.3 A 3.328 3.328 0 0 1 157.826 29.254 Q 157.516 29.2 157.274 29.082 A 1.465 1.465 0 0 1 156.851 28.775 Q 156.351 28.25 156.201 27.2 A 10.344 10.344 0 0 0 155.913 25.502 Q 155.678 24.611 155.284 23.931 A 4.235 4.235 0 0 0 154.101 22.6 Q 152.301 21.3 148.301 21.3 L 132.601 21.3 Q 128.051 21.3 126.276 23.05 Q 124.704 24.6 124.524 28.385 A 21.409 21.409 0 0 0 124.501 29.4 A 18.041 18.041 0 0 0 124.612 31.479 Q 124.871 33.708 125.738 34.997 A 4.217 4.217 0 0 0 126.276 35.65 Q 128.051 37.4 132.601 37.4 L 148.801 37.4 A 23.05 23.05 0 0 1 152.285 37.646 Q 156.372 38.272 158.601 40.5 Q 161.701 43.6 161.701 50.3 A 22.644 22.644 0 0 1 161.442 53.85 Q 160.805 57.854 158.601 60.075 A 9.376 9.376 0 0 1 155.126 62.239 Q 152.517 63.2 148.801 63.2 Z M 371.501 63.2 L 355.101 63.2 A 22.294 22.294 0 0 1 351.688 62.957 Q 349.911 62.681 348.485 62.093 A 9.485 9.485 0 0 1 345.951 60.575 A 9.434 9.434 0 0 1 343.349 56.924 Q 342.554 55.013 342.301 52.5 A 3.61 3.61 0 0 1 342.296 52.329 Q 342.296 51.516 342.685 51.01 A 1.645 1.645 0 0 1 342.801 50.875 Q 343.351 50.3 344.401 50.3 A 3.045 3.045 0 0 1 344.992 50.354 Q 345.569 50.469 345.926 50.825 A 1.76 1.76 0 0 1 346.323 51.457 Q 346.423 51.721 346.468 52.045 A 3.898 3.898 0 0 1 346.501 52.4 A 11.818 11.818 0 0 0 346.863 54.329 Q 347.148 55.336 347.608 56.101 A 4.903 4.903 0 0 0 348.876 57.525 A 6.102 6.102 0 0 0 350.567 58.388 Q 352.183 58.939 354.564 58.994 A 23.254 23.254 0 0 0 355.101 59 L 371.501 59 A 20.042 20.042 0 0 0 373.783 58.88 Q 376.197 58.602 377.586 57.683 A 4.474 4.474 0 0 0 378.326 57.075 Q 380.021 55.335 380.183 51.202 A 22.99 22.99 0 0 0 380.201 50.3 A 20.234 20.234 0 0 0 380.083 48.038 Q 379.732 44.925 378.326 43.5 A 5.113 5.113 0 0 0 376.627 42.399 Q 375.05 41.742 372.596 41.626 A 23.144 23.144 0 0 0 371.501 41.6 L 355.301 41.6 A 21.356 21.356 0 0 1 351.892 41.347 Q 348.122 40.736 346.001 38.65 A 8.963 8.963 0 0 1 343.898 35.289 Q 343.372 33.858 343.154 32.082 A 22.072 22.072 0 0 1 343.001 29.4 A 21.721 21.721 0 0 1 343.238 26.073 Q 343.513 24.305 344.105 22.903 A 8.688 8.688 0 0 1 346.001 20.05 A 9.188 9.188 0 0 1 349.397 17.983 Q 350.837 17.466 352.617 17.252 A 22.506 22.506 0 0 1 355.301 17.1 L 371.001 17.1 A 18.405 18.405 0 0 1 375.547 17.614 Q 381.464 19.126 382.794 25.091 A 15.705 15.705 0 0 1 383.101 27.1 A 3.23 3.23 0 0 1 383.128 27.373 Q 383.15 27.755 383.067 28.066 A 1.497 1.497 0 0 1 382.701 28.725 Q 382.151 29.3 381.101 29.3 A 3.328 3.328 0 0 1 380.526 29.254 Q 380.216 29.2 379.974 29.082 A 1.465 1.465 0 0 1 379.551 28.775 Q 379.051 28.25 378.901 27.2 A 10.344 10.344 0 0 0 378.613 25.502 Q 378.378 24.611 377.984 23.931 A 4.235 4.235 0 0 0 376.801 22.6 Q 375.001 21.3 371.001 21.3 L 355.301 21.3 Q 350.751 21.3 348.976 23.05 Q 347.404 24.6 347.224 28.385 A 21.409 21.409 0 0 0 347.201 29.4 A 18.041 18.041 0 0 0 347.312 31.479 Q 347.571 33.708 348.438 34.997 A 4.217 4.217 0 0 0 348.976 35.65 Q 350.751 37.4 355.301 37.4 L 371.501 37.4 A 23.05 23.05 0 0 1 374.985 37.646 Q 379.072 38.272 381.301 40.5 Q 384.401 43.6 384.401 50.3 A 22.644 22.644 0 0 1 384.142 53.85 Q 383.505 57.854 381.301 60.075 A 9.376 9.376 0 0 1 377.826 62.239 Q 375.217 63.2 371.501 63.2 Z M 83.601 63.3 L 78.001 63.3 A 26.079 26.079 0 0 1 74.076 63.026 Q 69.473 62.323 66.976 59.825 A 10.471 10.471 0 0 1 64.6 56.005 Q 63.501 53.047 63.501 48.8 Q 63.501 44.23 64.766 41.143 A 10.346 10.346 0 0 1 67.001 37.7 Q 69.651 35.05 74.596 34.407 A 26.442 26.442 0 0 1 78.001 34.2 L 101.301 34.2 Q 101.255 27.791 98.772 24.833 A 7.039 7.039 0 0 0 98.251 24.275 A 8.542 8.542 0 0 0 95.439 22.538 Q 92.56 21.4 88.001 21.4 L 82.201 21.4 A 46.909 46.909 0 0 0 78.849 21.512 Q 75.578 21.747 73.477 22.48 A 9.53 9.53 0 0 0 72.301 22.975 A 6.588 6.588 0 0 0 68.819 27.289 A 9.336 9.336 0 0 0 68.601 28.3 A 3.926 3.926 0 0 1 68.459 28.903 Q 68.287 29.431 67.976 29.775 Q 67.58 30.213 66.819 30.286 A 3.342 3.342 0 0 1 66.501 30.3 A 3.059 3.059 0 0 1 65.872 30.24 Q 65.272 30.114 64.901 29.725 A 1.746 1.746 0 0 1 64.473 28.935 Q 64.396 28.634 64.396 28.272 A 3.61 3.61 0 0 1 64.401 28.1 A 12.235 12.235 0 0 1 65.151 24.548 A 9.229 9.229 0 0 1 69.226 19.8 Q 73.467 17.308 81.497 17.205 A 54.563 54.563 0 0 1 82.201 17.2 L 88.001 17.2 Q 93.451 17.2 97.137 18.682 A 12.347 12.347 0 0 1 101.326 21.375 A 12.535 12.535 0 0 1 104.161 25.931 Q 105.501 29.518 105.501 34.7 L 105.501 61.2 A 3.023 3.023 0 0 1 105.396 62.032 Q 105.13 62.963 104.178 63.211 A 3.094 3.094 0 0 1 103.401 63.3 A 3.023 3.023 0 0 1 102.57 63.196 Q 101.638 62.929 101.39 61.978 A 3.094 3.094 0 0 1 101.301 61.2 L 101.301 55.3 A 14.684 14.684 0 0 1 93.141 61.877 Q 90.444 62.833 87.065 63.147 A 37.489 37.489 0 0 1 83.601 63.3 Z M 306.301 63.3 L 300.701 63.3 A 26.079 26.079 0 0 1 296.776 63.026 Q 292.173 62.323 289.676 59.825 A 10.471 10.471 0 0 1 287.3 56.005 Q 286.201 53.047 286.201 48.8 Q 286.201 44.23 287.466 41.143 A 10.346 10.346 0 0 1 289.701 37.7 Q 292.351 35.05 297.296 34.407 A 26.442 26.442 0 0 1 300.701 34.2 L 324.001 34.2 Q 323.955 27.791 321.472 24.833 A 7.039 7.039 0 0 0 320.951 24.275 A 8.542 8.542 0 0 0 318.139 22.538 Q 315.26 21.4 310.701 21.4 L 304.901 21.4 A 46.909 46.909 0 0 0 301.549 21.512 Q 298.278 21.747 296.177 22.48 A 9.53 9.53 0 0 0 295.001 22.975 A 6.588 6.588 0 0 0 291.519 27.289 A 9.336 9.336 0 0 0 291.301 28.3 A 3.926 3.926 0 0 1 291.159 28.903 Q 290.987 29.431 290.676 29.775 Q 290.28 30.213 289.519 30.286 A 3.342 3.342 0 0 1 289.201 30.3 A 3.059 3.059 0 0 1 288.572 30.24 Q 287.972 30.114 287.601 29.725 A 1.746 1.746 0 0 1 287.173 28.935 Q 287.096 28.634 287.096 28.272 A 3.61 3.61 0 0 1 287.101 28.1 A 12.235 12.235 0 0 1 287.851 24.548 A 9.229 9.229 0 0 1 291.926 19.8 Q 296.167 17.308 304.197 17.205 A 54.563 54.563 0 0 1 304.901 17.2 L 310.701 17.2 Q 316.151 17.2 319.837 18.682 A 12.347 12.347 0 0 1 324.026 21.375 A 12.535 12.535 0 0 1 326.861 25.931 Q 328.201 29.518 328.201 34.7 L 328.201 61.2 A 3.023 3.023 0 0 1 328.096 62.032 Q 327.83 62.963 326.878 63.211 A 3.094 3.094 0 0 1 326.101 63.3 A 3.023 3.023 0 0 1 325.27 63.196 Q 324.338 62.929 324.09 61.978 A 3.094 3.094 0 0 1 324.001 61.2 L 324.001 55.3 A 14.684 14.684 0 0 1 315.841 61.877 Q 313.144 62.833 309.765 63.147 A 37.489 37.489 0 0 1 306.301 63.3 Z M 469.301 41.8 L 432.401 41.8 L 432.401 45.9 A 27.795 27.795 0 0 0 432.611 49.45 Q 433.111 53.321 434.803 55.478 A 7.184 7.184 0 0 0 435.376 56.125 A 8.4 8.4 0 0 0 438.218 57.937 Q 440.791 58.974 444.725 59.087 A 34.173 34.173 0 0 0 445.701 59.1 L 453.901 59.1 A 39.187 39.187 0 0 0 457.222 58.97 Q 460.498 58.69 462.559 57.81 A 8.245 8.245 0 0 0 463.651 57.25 A 6.803 6.803 0 0 0 466.469 53.737 Q 466.883 52.639 467.056 51.291 A 14.107 14.107 0 0 0 467.101 50.9 A 3.781 3.781 0 0 1 467.208 50.282 Q 467.369 49.682 467.726 49.325 A 1.647 1.647 0 0 1 468.382 48.932 Q 468.776 48.8 469.301 48.8 A 2.788 2.788 0 0 1 469.932 48.868 Q 470.393 48.975 470.72 49.253 A 1.722 1.722 0 0 1 470.851 49.375 A 1.631 1.631 0 0 1 471.263 50.172 Q 471.337 50.508 471.307 50.92 A 3.589 3.589 0 0 1 471.301 51 A 16.167 16.167 0 0 1 470.569 54.804 A 10.573 10.573 0 0 1 466.551 60.325 A 13.953 13.953 0 0 1 462.78 62.138 Q 459.264 63.264 454.227 63.299 A 46.756 46.756 0 0 1 453.901 63.3 L 445.701 63.3 Q 440.25 63.3 436.565 61.819 A 12.347 12.347 0 0 1 432.376 59.125 A 12.586 12.586 0 0 1 429.522 54.539 Q 428.779 52.543 428.453 50.06 A 32.114 32.114 0 0 1 428.201 45.9 L 428.201 34.7 Q 428.201 29.19 429.682 25.481 A 12.316 12.316 0 0 1 432.376 21.275 A 12.296 12.296 0 0 1 436.851 18.488 Q 440.46 17.143 445.701 17.2 L 453.901 17.2 Q 459.351 17.2 463.037 18.682 A 12.347 12.347 0 0 1 467.226 21.375 A 12.535 12.535 0 0 1 470.061 25.931 Q 471.401 29.518 471.401 34.7 L 471.401 39.7 A 3.023 3.023 0 0 1 471.296 40.532 Q 471.03 41.463 470.078 41.711 A 3.094 3.094 0 0 1 469.301 41.8 Z M 178.101 46.2 L 178.101 21.4 L 171.801 21.4 A 3.023 3.023 0 0 1 170.97 21.296 Q 170.038 21.029 169.79 20.078 A 3.094 3.094 0 0 1 169.701 19.3 A 3.023 3.023 0 0 1 169.805 18.469 Q 170.072 17.538 171.023 17.29 A 3.094 3.094 0 0 1 171.801 17.2 L 178.101 17.2 L 178.101 5.3 A 3.023 3.023 0 0 1 178.205 4.469 Q 178.472 3.538 179.423 3.29 A 3.094 3.094 0 0 1 180.201 3.2 A 3.023 3.023 0 0 1 181.032 3.305 Q 181.964 3.572 182.211 4.523 A 3.094 3.094 0 0 1 182.301 5.3 L 182.301 17.2 L 195.201 17.2 A 3.023 3.023 0 0 1 196.032 17.305 Q 196.964 17.572 197.211 18.523 A 3.094 3.094 0 0 1 197.301 19.3 A 3.023 3.023 0 0 1 197.196 20.132 Q 196.93 21.063 195.978 21.311 A 3.094 3.094 0 0 1 195.201 21.4 L 182.301 21.4 L 182.301 46.2 A 28.599 28.599 0 0 0 182.48 49.529 Q 182.91 53.184 184.368 55.283 A 6.889 6.889 0 0 0 185.176 56.25 A 7.995 7.995 0 0 0 187.807 57.931 Q 190.23 58.926 193.953 59.074 A 33.797 33.797 0 0 0 195.301 59.1 Q 196.373 59.1 196.867 59.475 A 1.073 1.073 0 0 1 197.051 59.65 Q 197.42 60.102 197.486 60.855 A 3.937 3.937 0 0 1 197.501 61.2 A 2.878 2.878 0 0 1 197.388 62.044 Q 197.103 62.972 196.101 63.214 A 3.408 3.408 0 0 1 195.301 63.3 A 31.335 31.335 0 0 1 190.626 62.976 Q 185.147 62.147 182.201 59.2 Q 178.101 55.1 178.101 46.2 Z M 400.801 46.2 L 400.801 21.4 L 394.501 21.4 A 3.023 3.023 0 0 1 393.67 21.296 Q 392.738 21.029 392.49 20.078 A 3.094 3.094 0 0 1 392.401 19.3 A 3.023 3.023 0 0 1 392.505 18.469 Q 392.772 17.538 393.723 17.29 A 3.094 3.094 0 0 1 394.501 17.2 L 400.801 17.2 L 400.801 5.3 A 3.023 3.023 0 0 1 400.905 4.469 Q 401.172 3.538 402.123 3.29 A 3.094 3.094 0 0 1 402.901 3.2 A 3.023 3.023 0 0 1 403.732 3.305 Q 404.664 3.572 404.911 4.523 A 3.094 3.094 0 0 1 405.001 5.3 L 405.001 17.2 L 417.901 17.2 A 3.023 3.023 0 0 1 418.732 17.305 Q 419.664 17.572 419.911 18.523 A 3.094 3.094 0 0 1 420.001 19.3 A 3.023 3.023 0 0 1 419.896 20.132 Q 419.63 21.063 418.678 21.311 A 3.094 3.094 0 0 1 417.901 21.4 L 405.001 21.4 L 405.001 46.2 A 28.599 28.599 0 0 0 405.18 49.529 Q 405.61 53.184 407.068 55.283 A 6.889 6.889 0 0 0 407.876 56.25 A 7.995 7.995 0 0 0 410.507 57.931 Q 412.93 58.926 416.653 59.074 A 33.797 33.797 0 0 0 418.001 59.1 Q 419.073 59.1 419.567 59.475 A 1.073 1.073 0 0 1 419.751 59.65 Q 420.12 60.102 420.186 60.855 A 3.937 3.937 0 0 1 420.201 61.2 A 2.878 2.878 0 0 1 420.088 62.044 Q 419.803 62.972 418.801 63.214 A 3.408 3.408 0 0 1 418.001 63.3 A 31.335 31.335 0 0 1 413.326 62.976 Q 407.847 62.147 404.901 59.2 Q 400.801 55.1 400.801 46.2 Z M 488.401 61.2 L 488.401 19.3 A 3.023 3.023 0 0 1 488.505 18.469 Q 488.772 17.538 489.723 17.29 A 3.094 3.094 0 0 1 490.501 17.2 A 3.023 3.023 0 0 1 491.332 17.305 Q 492.264 17.572 492.511 18.523 A 3.094 3.094 0 0 1 492.601 19.3 L 492.601 28.25 Q 495.101 22.9 500.126 20.05 Q 505.151 17.2 512.201 17.2 A 3.023 3.023 0 0 1 513.032 17.305 Q 513.964 17.572 514.211 18.523 A 3.094 3.094 0 0 1 514.301 19.3 A 3.023 3.023 0 0 1 514.196 20.132 Q 513.93 21.063 512.978 21.311 A 3.094 3.094 0 0 1 512.201 21.4 A 30.366 30.366 0 0 0 506.725 21.863 Q 503.658 22.426 501.228 23.673 A 15.417 15.417 0 0 0 498.201 25.7 A 15.323 15.323 0 0 0 493.6 32.81 Q 492.841 35.177 492.615 38.017 A 28.73 28.73 0 0 0 492.601 38.2 L 492.601 61.2 A 3.023 3.023 0 0 1 492.496 62.032 Q 492.23 62.963 491.278 63.211 A 3.094 3.094 0 0 1 490.501 63.3 A 3.023 3.023 0 0 1 489.67 63.196 Q 488.738 62.929 488.49 61.978 A 3.094 3.094 0 0 1 488.401 61.2 Z M 78.001 59.1 L 83.601 59.1 A 38.637 38.637 0 0 0 87.777 58.887 Q 90.464 58.594 92.676 57.9 A 14.85 14.85 0 0 0 95.862 56.497 A 11.497 11.497 0 0 0 98.726 54.1 Q 100.951 51.5 101.301 47.3 L 101.301 38.4 L 78.001 38.4 A 23.046 23.046 0 0 0 75.343 38.543 Q 71.682 38.969 69.976 40.675 Q 67.931 42.72 67.724 47.651 A 27.389 27.389 0 0 0 67.701 48.8 A 23.046 23.046 0 0 0 67.843 51.458 Q 68.269 55.119 69.976 56.825 A 6.317 6.317 0 0 0 72.06 58.167 Q 73.98 58.961 76.932 59.08 A 26.628 26.628 0 0 0 78.001 59.1 Z M 300.701 59.1 L 306.301 59.1 A 38.637 38.637 0 0 0 310.477 58.887 Q 313.164 58.594 315.376 57.9 A 14.85 14.85 0 0 0 318.562 56.497 A 11.497 11.497 0 0 0 321.426 54.1 Q 323.651 51.5 324.001 47.3 L 324.001 38.4 L 300.701 38.4 A 23.046 23.046 0 0 0 298.043 38.543 Q 294.382 38.969 292.676 40.675 Q 290.631 42.72 290.424 47.651 A 27.389 27.389 0 0 0 290.401 48.8 A 23.046 23.046 0 0 0 290.543 51.458 Q 290.969 55.119 292.676 56.825 A 6.317 6.317 0 0 0 294.76 58.167 Q 296.68 58.961 299.632 59.08 A 26.628 26.628 0 0 0 300.701 59.1 Z M 453.901 21.4 L 445.701 21.4 Q 438.351 21.3 435.376 24.275 A 8.328 8.328 0 0 0 433.592 27.064 Q 432.563 29.586 432.423 33.445 A 34.492 34.492 0 0 0 432.401 34.7 L 432.401 37.6 L 467.201 37.6 L 467.201 34.7 A 28.91 28.91 0 0 0 467.015 31.299 Q 466.56 27.477 464.996 25.288 A 7.24 7.24 0 0 0 464.226 24.375 A 8.4 8.4 0 0 0 461.384 22.564 Q 458.81 21.527 454.876 21.414 A 34.173 34.173 0 0 0 453.901 21.4 Z"
              vector-effect="non-scaling-stroke"/>
    </g>
</svg>